{"glyphs":{":":{"x_min":0,"x_max":402,"ha":402,"o":"m 292 356 l 110 356 l 110 548 l 292 548 z m 292 0 l 110 0 l 110 192 l 292 192 z"},"$":{"x_min":0,"x_max":711,"ha":711,"o":"m 654 209 q 654 127 585 68 q 516 9 401 1 l 401 -176 l 316 -176 l 316 -2 q 261 -1 189 11 q 118 24 77 43 l 77 186 l 99 186 q 144 161 202 146 q 261 132 318 127 l 318 261 l 271 272 q 226 282 188 296 q 150 310 123 332 q 96 354 81 387 q 65 420 65 469 q 65 542 132 593 q 198 645 316 656 l 316 770 l 401 770 l 401 657 q 446 655 506 644 q 566 633 601 619 l 601 479 l 580 479 q 545 499 499 512 q 453 525 401 528 l 401 404 l 440 396 q 550 375 602 331 q 654 288 654 209 z m 324 415 l 324 528 q 292 526 266 512 q 240 498 240 473 q 240 450 257 437 q 273 424 324 415 z m 477 190 q 477 219 451 233 q 425 247 399 250 l 399 129 q 431 134 454 148 q 477 163 477 190 z"},"?":{"x_min":0,"x_max":617,"ha":617,"o":"m 562 549 q 562 500 548 462 q 533 424 507 396 q 480 369 444 347 q 407 325 360 307 l 360 195 l 188 195 l 188 360 q 223 369 251 379 q 279 389 310 411 q 339 430 355 456 q 372 482 372 515 q 372 563 340 584 q 309 605 251 605 q 216 605 172 590 q 128 575 91 551 l 72 551 l 72 700 q 103 713 168 727 q 233 742 300 742 q 420 742 491 688 q 562 635 562 549 z m 374 0 l 177 0 l 177 129 l 374 129 z"},"<":{"x_min":0,"x_max":867,"ha":867,"o":"m 752 -3 l 100 268 l 100 379 l 752 650 l 752 510 l 295 323 l 752 137 z"},"'":{"x_min":0,"x_max":332,"ha":332,"o":"m 250 760 l 221 472 l 111 472 l 82 760 z"},"=":{"x_min":0,"x_max":867,"ha":867,"o":"m 746 386 l 122 386 l 122 517 l 746 517 z m 746 129 l 122 129 l 122 260 l 746 260 z"},"a":{"x_min":0,"x_max":668,"ha":668,"o":"m 415 143 l 415 257 q 379 254 338 249 q 296 244 275 237 q 249 229 235 213 q 221 197 221 171 q 221 154 224 144 q 227 133 238 123 q 250 113 265 109 q 281 104 314 104 q 340 104 367 115 q 395 125 415 143 z m 415 58 q 401 47 380 32 q 359 17 340 8 q 314 -3 287 -9 q 259 -15 226 -15 q 147 -15 95 34 q 42 82 42 157 q 42 217 69 255 q 96 293 145 315 q 194 337 266 347 q 338 356 416 360 l 416 363 q 416 409 379 426 q 342 443 270 443 q 226 443 177 428 q 127 413 106 404 l 90 404 l 90 537 q 118 544 180 554 q 243 564 306 564 q 456 564 523 518 q 589 472 589 373 l 589 0 l 415 0 z"},"L":{"x_min":0,"x_max":637,"ha":637,"o":"m 617 0 l 93 0 l 93 727 l 280 727 l 280 141 l 617 141 z"},"3":{"x_min":0,"x_max":711,"ha":711,"o":"m 590 341 q 614 320 628 293 q 642 266 642 220 q 642 169 622 125 q 602 80 560 48 q 519 18 463 1 q 408 -15 329 -15 q 238 -15 174 -1 q 109 13 68 31 l 68 190 l 87 190 q 129 165 188 146 q 246 128 294 128 q 323 128 356 133 q 389 137 412 153 q 430 165 441 182 q 452 200 452 232 q 452 264 437 281 q 422 299 398 306 q 375 314 341 315 q 307 315 278 315 l 238 315 l 238 445 l 280 445 q 318 445 347 448 q 376 450 397 459 q 418 468 429 484 q 440 499 440 529 q 440 551 429 564 q 417 578 400 585 q 381 594 355 597 q 330 600 311 600 q 265 600 211 584 q 158 568 107 539 l 89 539 l 89 696 q 129 712 198 727 q 267 742 338 742 q 407 742 458 730 q 510 718 544 698 q 584 674 604 640 q 623 606 623 560 q 623 500 585 452 q 548 404 486 391 l 486 384 q 511 381 539 371 q 567 360 590 341 z"},";":{"x_min":0,"x_max":402,"ha":402,"o":"m 292 356 l 110 356 l 110 548 l 292 548 z m 322 192 l 146 -181 l 38 -181 l 134 192 z"},"J":{"x_min":0,"x_max":555,"ha":555,"o":"m 472 213 q 472 166 455 124 q 438 82 404 53 q 368 22 318 6 q 268 -11 193 -11 q 143 -11 99 -8 q 54 -4 21 3 l 21 150 l 38 150 q 62 142 87 134 q 112 126 152 126 q 203 126 231 140 q 258 154 270 178 q 281 202 283 231 q 284 259 284 304 l 284 593 l 118 593 l 118 727 l 472 727 z"},"V":{"x_min":0,"x_max":764,"ha":764,"o":"m 752 727 l 487 0 l 277 0 l 12 727 l 208 727 l 384 216 l 560 727 z"},"\"":{"x_min":0,"x_max":587,"ha":587,"o":"m 506 760 l 477 472 l 366 472 l 337 760 z m 250 760 l 221 472 l 111 472 l 82 760 z"},"7":{"x_min":0,"x_max":711,"ha":711,"o":"m 646 583 l 317 0 l 108 0 l 450 588 l 76 588 l 76 727 l 646 727 z"},"S":{"x_min":0,"x_max":710,"ha":710,"o":"m 675 229 q 675 121 584 54 q 493 -13 336 -13 q 246 -13 179 3 q 112 19 53 43 l 53 217 l 74 217 q 132 171 204 146 q 276 121 342 121 q 359 121 387 124 q 415 127 433 134 q 454 143 468 156 q 482 169 482 195 q 482 219 462 236 q 441 253 402 263 q 361 272 316 281 q 270 290 230 303 q 138 333 98 384 q 58 435 58 510 q 58 612 149 676 q 240 740 383 740 q 455 740 525 726 q 595 712 646 691 l 646 524 l 626 524 q 582 559 518 583 q 455 606 388 606 q 365 606 342 603 q 318 600 297 591 q 278 584 264 569 q 250 554 250 535 q 250 506 272 491 q 294 476 355 463 q 396 455 432 447 q 469 439 512 425 q 595 398 635 351 q 675 304 675 229 z"},"}":{"x_min":0,"x_max":711,"ha":711,"o":"m 637 224 l 603 224 q 517 224 478 190 q 439 156 439 69 l 439 -2 q 439 -95 383 -143 q 327 -191 232 -191 l 98 -191 l 98 -82 l 154 -82 q 183 -82 207 -78 q 230 -73 247 -61 q 263 -48 271 -24 q 280 0 280 38 l 280 91 q 280 160 318 206 q 356 251 427 278 l 427 290 q 356 317 318 363 q 280 409 280 477 l 280 530 q 280 568 271 593 q 263 617 247 629 q 230 642 207 646 q 183 650 154 650 l 98 650 l 98 760 l 232 760 q 327 760 383 712 q 439 664 439 571 l 439 499 q 439 412 478 378 q 517 344 603 344 l 637 344 z"},"Z":{"x_min":0,"x_max":692,"ha":692,"o":"m 655 0 l 44 0 l 44 136 l 406 586 l 62 586 l 62 727 l 635 727 l 635 588 l 273 141 l 655 141 z"},"x":{"x_min":0,"x_max":669,"ha":669,"o":"m 656 0 l 451 0 l 334 164 l 214 0 l 13 0 l 229 274 l 16 548 l 221 548 l 336 387 l 452 548 l 654 548 l 440 278 z"},")":{"x_min":0,"x_max":543,"ha":543,"o":"m 449 279 q 449 141 404 25 q 359 -91 265 -201 l 81 -201 l 81 -187 q 120 -152 157 -105 q 194 -59 223 0 q 253 60 271 128 q 289 196 289 279 q 289 359 271 430 q 252 501 223 559 q 192 620 156 665 q 121 710 81 746 l 81 760 l 265 760 q 359 650 404 534 q 449 417 449 279 z"},"&":{"x_min":0,"x_max":862,"ha":862,"o":"m 880 0 l 647 0 l 580 62 q 531 23 472 4 q 413 -15 348 -15 q 213 -15 136 47 q 59 109 59 209 q 59 251 71 282 q 83 312 104 337 q 123 361 147 378 q 172 395 195 407 q 174 422 156 439 q 137 456 124 475 q 110 494 103 517 q 96 540 96 568 q 96 603 110 633 q 125 663 154 687 q 185 711 236 727 q 287 742 357 742 q 416 742 462 730 q 509 719 541 697 q 570 677 586 648 q 602 619 602 585 q 602 562 595 536 q 589 509 571 485 q 552 459 521 438 q 490 416 436 398 l 585 267 l 585 424 l 767 424 l 767 370 q 767 312 748 260 q 728 207 694 172 l 880 10 z m 420 563 q 420 589 412 604 q 404 619 393 626 q 381 634 369 636 q 356 638 348 638 q 340 638 329 636 q 319 634 306 626 q 296 619 288 606 q 280 592 280 570 q 280 542 304 515 q 327 488 365 459 q 392 481 406 507 q 420 533 420 563 z m 494 144 l 285 329 q 275 319 263 294 q 250 269 250 238 q 250 206 263 182 q 275 158 294 143 q 313 127 337 120 q 361 112 384 112 q 417 112 443 118 q 469 125 494 144 z"},"_":{"x_min":0,"x_max":711,"ha":711,"o":"m 719 -171 l -8 -171 l -8 -68 l 719 -68 z"},"v":{"x_min":0,"x_max":650,"ha":650,"o":"m 635 548 l 424 0 l 225 0 l 15 548 l 201 548 l 328 171 l 453 548 z"},"O":{"x_min":0,"x_max":850,"ha":850,"o":"m 800 363 q 800 189 700 87 q 601 -15 425 -15 q 250 -15 150 87 q 50 189 50 363 q 50 539 150 640 q 250 742 425 742 q 600 742 700 640 q 800 539 800 363 z m 551 179 q 579 212 592 258 q 605 303 605 364 q 605 429 590 475 q 575 521 550 549 q 525 579 493 592 q 460 605 425 605 q 390 605 358 592 q 327 580 300 550 q 276 523 260 475 q 245 427 245 363 q 245 298 260 253 q 275 207 299 178 q 324 149 356 136 q 389 122 425 122 q 461 122 494 136 q 527 150 551 179 z"},"(":{"x_min":0,"x_max":543,"ha":543,"o":"m 462 -201 l 278 -201 q 185 -91 139 25 q 94 141 94 279 q 94 417 139 534 q 185 650 278 760 l 462 760 l 462 746 q 423 710 387 665 q 351 620 320 559 q 291 501 273 430 q 254 359 254 279 q 254 196 272 128 q 290 60 320 0 q 350 -58 386 -105 q 423 -152 462 -187 z"},"C":{"x_min":0,"x_max":724,"ha":724,"o":"m 421 -14 q 340 -14 272 10 q 203 34 154 81 q 104 128 77 199 q 50 270 50 363 q 50 449 76 520 q 102 590 151 640 q 199 688 269 715 q 339 741 422 741 q 468 741 505 736 q 542 731 573 723 q 605 713 632 702 q 659 690 679 681 l 679 504 l 657 504 q 644 516 623 532 q 602 548 576 564 q 549 580 518 590 q 486 601 451 601 q 411 601 375 589 q 340 576 310 547 q 281 520 263 474 q 245 428 245 362 q 245 294 264 248 q 284 202 313 176 q 343 149 379 137 q 416 126 452 126 q 486 126 519 136 q 553 146 581 164 q 605 178 625 194 q 646 210 659 222 l 679 222 l 679 48 q 651 36 626 25 q 602 15 574 7 q 539 -3 507 -9 q 476 -14 421 -14 z"},"W":{"x_min":0,"x_max":1128,"ha":1128,"o":"m 1096 727 l 900 0 l 693 0 l 562 474 l 436 0 l 228 0 l 32 727 l 228 727 l 340 227 l 474 727 l 661 727 l 788 227 l 905 727 z"},"A":{"x_min":0,"x_max":776,"ha":776,"o":"m 765 0 l 571 0 l 521 147 l 251 147 l 201 0 l 12 0 l 280 727 l 496 727 z m 475 280 l 386 541 l 296 280 z"},"f":{"x_min":0,"x_max":422,"ha":422,"o":"m 438 631 l 425 631 q 414 634 395 639 q 376 643 354 643 q 303 643 284 625 q 266 606 266 553 l 266 548 l 402 548 l 402 429 l 272 429 l 272 0 l 96 0 l 96 429 l 21 429 l 21 548 l 96 548 l 96 563 q 96 664 150 714 q 203 765 312 765 q 351 765 382 762 q 414 759 438 755 z"},"Q":{"x_min":0,"x_max":850,"ha":850,"o":"m 551 179 q 579 212 592 258 q 605 303 605 364 q 605 429 590 475 q 575 521 550 549 q 525 579 493 592 q 460 605 425 605 q 390 605 358 592 q 327 580 300 550 q 276 523 260 475 q 245 427 245 363 q 245 298 260 253 q 275 207 299 178 q 324 149 356 136 q 389 122 425 122 q 461 122 494 136 q 527 150 551 179 z m 571 9 q 573 -40 598 -61 q 622 -82 681 -82 q 701 -82 729 -75 q 756 -68 767 -62 l 785 -62 l 785 -191 q 758 -198 726 -203 q 694 -208 628 -208 q 570 -208 527 -193 q 483 -179 455 -152 q 426 -126 412 -91 q 398 -56 396 -13 q 232 -4 141 96 q 50 196 50 363 q 50 539 150 640 q 250 742 425 742 q 600 742 700 640 q 800 539 800 363 q 800 234 741 140 q 683 46 571 9 z"},"w":{"x_min":0,"x_max":979,"ha":979,"o":"m 958 548 l 788 0 l 601 0 l 489 370 l 379 0 l 190 0 l 22 548 l 207 548 l 300 170 l 417 548 l 573 548 l 685 170 l 777 548 z"},"-":{"x_min":0,"x_max":480,"ha":480,"o":"m 426 253 l 54 253 l 54 394 l 426 394 z"},"E":{"x_min":0,"x_max":683,"ha":683,"o":"m 619 0 l 93 0 l 93 727 l 619 727 l 619 586 l 279 586 l 279 461 l 594 461 l 594 320 l 279 320 l 279 141 l 619 141 z"},"s":{"x_min":0,"x_max":593,"ha":593,"o":"m 560 174 q 560 89 483 37 q 407 -15 275 -15 q 202 -15 142 -1 q 83 12 46 29 l 46 173 l 62 173 q 76 164 93 153 q 110 142 142 129 q 169 118 204 110 q 239 102 278 102 q 330 102 355 114 q 380 125 380 147 q 380 167 365 177 q 351 186 310 194 q 290 198 257 203 q 223 208 196 216 q 121 235 85 277 q 49 318 49 379 q 49 458 124 511 q 199 563 329 563 q 390 563 447 551 q 503 539 535 524 l 535 386 l 520 386 q 480 413 430 429 q 380 446 329 446 q 287 446 258 435 q 229 423 229 401 q 229 382 242 372 q 255 361 304 351 q 331 346 362 341 q 393 335 424 328 q 493 310 526 271 q 560 232 560 174 z"},">":{"x_min":0,"x_max":867,"ha":867,"o":"m 768 268 l 115 -3 l 115 137 l 572 323 l 115 510 l 115 650 l 768 379 z"},"l":{"x_min":0,"x_max":342,"ha":342,"o":"m 259 0 l 83 0 l 83 760 l 259 760 z"},"8":{"x_min":0,"x_max":711,"ha":711,"o":"m 663 203 q 663 106 580 45 q 498 -17 354 -17 q 274 -17 216 0 q 159 17 121 46 q 84 75 66 113 q 48 152 48 196 q 48 251 80 293 q 112 335 191 367 l 191 370 q 127 399 98 444 q 68 488 68 547 q 68 633 148 688 q 228 744 356 744 q 491 744 568 694 q 644 644 644 560 q 644 508 612 468 q 580 427 513 399 l 513 396 q 589 367 626 318 q 663 270 663 203 z m 461 539 q 461 576 432 598 q 404 620 356 620 q 339 620 321 616 q 302 611 287 603 q 273 595 264 581 q 254 568 254 551 q 254 522 271 506 q 287 490 324 474 q 338 468 362 459 q 385 451 419 440 q 441 466 451 487 q 461 508 461 539 z m 476 195 q 476 230 458 248 q 441 266 386 290 q 370 297 339 308 q 309 318 288 326 q 267 307 250 280 q 233 253 233 219 q 233 168 269 138 q 306 108 364 108 q 380 108 401 113 q 422 118 437 127 q 455 139 465 154 q 476 169 476 195 z"},"\\":{"x_min":0,"x_max":689,"ha":689,"o":"m 629 -158 l 479 -158 l 92 760 l 244 760 z"},"e":{"x_min":0,"x_max":664,"ha":664,"o":"m 623 242 l 221 242 q 225 177 270 143 q 315 109 403 109 q 458 109 511 129 q 563 149 593 172 l 613 172 l 613 31 q 553 7 500 -4 q 448 -15 384 -15 q 219 -15 131 60 q 43 134 43 271 q 43 407 126 486 q 209 565 354 565 q 488 565 556 498 q 623 430 623 303 z m 448 345 q 447 400 421 428 q 395 456 340 456 q 290 456 257 429 q 224 403 220 345 z"},"b":{"x_min":0,"x_max":699,"ha":699,"o":"m 655 282 q 655 152 584 71 q 512 -11 405 -11 q 359 -11 325 -1 q 290 9 259 27 l 251 0 l 83 0 l 83 760 l 259 760 l 259 491 q 299 523 342 543 q 384 563 439 563 q 543 563 599 489 q 655 414 655 282 z m 474 278 q 474 352 449 391 q 424 431 360 431 q 335 431 309 423 q 283 416 259 401 l 259 126 q 278 119 295 117 q 312 114 336 114 q 406 114 440 155 q 474 196 474 278 z"},"%":{"x_min":0,"x_max":1272,"ha":1272,"o":"m 512 506 q 512 384 456 326 q 400 267 292 267 q 182 267 126 326 q 70 386 70 504 q 70 625 127 683 q 184 741 292 741 q 402 741 457 683 q 512 625 512 506 z m 893 727 l 512 0 l 381 0 l 762 727 z m 1202 224 q 1202 102 1146 43 q 1090 -15 982 -15 q 872 -15 816 44 q 760 104 760 222 q 760 342 817 401 q 874 459 982 459 q 1092 459 1147 401 q 1202 342 1202 224 z m 368 504 q 368 583 350 610 q 332 637 291 637 q 250 637 232 610 q 214 583 214 504 q 214 425 232 398 q 250 371 291 371 q 332 371 350 398 q 368 425 368 504 z m 1058 222 q 1058 300 1040 328 q 1022 355 981 355 q 940 355 922 328 q 904 300 904 222 q 904 143 922 116 q 940 88 981 88 q 1022 88 1040 116 q 1058 143 1058 222 z"},"m":{"x_min":0,"x_max":1058,"ha":1058,"o":"m 619 389 l 619 0 l 442 0 l 442 274 q 442 314 440 342 q 438 370 430 388 q 421 405 403 413 q 385 421 353 421 q 327 421 303 411 q 278 400 259 389 l 259 0 l 83 0 l 83 548 l 259 548 l 259 488 q 304 523 346 543 q 387 563 438 563 q 492 563 533 539 q 575 515 598 468 q 651 513 701 538 q 750 563 798 563 q 887 563 933 510 q 979 457 979 357 l 979 0 l 803 0 l 803 274 q 803 314 801 342 q 799 370 791 388 q 782 405 764 413 q 746 421 713 421 q 691 421 670 414 q 649 406 619 389 z"},"#":{"x_min":0,"x_max":867,"ha":867,"o":"m 793 442 l 639 442 l 601 290 l 738 290 l 738 173 l 571 173 l 527 0 l 409 0 l 453 173 l 324 173 l 280 0 l 161 0 l 205 173 l 73 173 l 73 290 l 234 290 l 271 442 l 128 442 l 128 559 l 301 559 l 343 727 l 462 727 l 420 559 l 549 559 l 591 727 l 711 727 l 668 559 l 793 559 z m 521 443 l 391 443 l 352 289 l 483 289 z"},",":{"x_min":0,"x_max":361,"ha":361,"o":"m 302 192 l 126 -181 l 17 -181 l 113 192 z"},"n":{"x_min":0,"x_max":712,"ha":712,"o":"m 634 0 l 457 0 l 457 272 q 457 305 454 338 q 450 371 442 387 q 432 405 413 413 q 395 421 361 421 q 337 421 312 414 q 288 406 259 389 l 259 0 l 83 0 l 83 548 l 259 548 l 259 488 q 306 524 349 544 q 392 563 445 563 q 534 563 584 512 q 634 460 634 357 z"},"h":{"x_min":0,"x_max":712,"ha":712,"o":"m 634 0 l 457 0 l 457 272 q 457 305 454 338 q 450 371 442 387 q 432 405 413 413 q 395 421 361 421 q 337 421 312 414 q 288 406 259 389 l 259 0 l 83 0 l 83 760 l 259 760 l 259 488 q 306 524 349 544 q 392 563 445 563 q 534 563 584 512 q 634 460 634 357 z"},"z":{"x_min":0,"x_max":597,"ha":597,"o":"m 556 0 l 41 0 l 41 113 l 330 420 l 53 420 l 53 548 l 551 548 l 551 438 l 266 131 l 556 131 z"},"B":{"x_min":0,"x_max":762,"ha":762,"o":"m 715 223 q 715 170 694 128 q 672 87 635 60 q 592 27 541 14 q 489 0 410 0 l 93 0 l 93 727 l 375 727 q 463 727 504 721 q 544 715 584 695 q 626 674 646 639 q 667 604 667 558 q 667 505 639 465 q 611 425 560 402 l 560 398 q 631 384 673 340 q 715 295 715 223 z m 475 521 q 475 540 466 558 q 457 576 434 584 q 413 592 383 593 q 352 594 297 594 l 279 594 l 279 440 l 309 440 q 353 440 384 441 q 416 443 434 451 q 459 462 467 480 q 475 498 475 521 z m 521 226 q 521 260 507 279 q 494 298 461 307 q 439 313 401 314 q 362 314 320 314 l 279 314 l 279 133 l 293 133 q 372 133 406 134 q 440 134 469 146 q 499 159 510 179 q 521 199 521 226 z"},"K":{"x_min":0,"x_max":771,"ha":771,"o":"m 771 0 l 542 0 l 324 291 l 280 238 l 280 0 l 93 0 l 93 727 l 280 727 l 280 398 l 540 727 l 757 727 l 473 391 z"},"R":{"x_min":0,"x_max":782,"ha":782,"o":"m 500 504 q 500 532 489 551 q 478 571 451 582 q 432 590 406 592 q 381 593 347 593 l 279 593 l 279 397 l 337 397 q 382 397 412 402 q 442 406 463 422 q 482 437 491 455 q 500 474 500 504 z m 793 0 l 564 0 l 366 267 l 279 267 l 279 0 l 93 0 l 93 727 l 407 727 q 472 727 518 720 q 564 712 605 688 q 646 664 670 625 q 694 586 694 527 q 694 447 657 396 q 620 345 550 312 z"},"T":{"x_min":0,"x_max":682,"ha":682,"o":"m 662 586 l 435 586 l 435 0 l 247 0 l 247 586 l 20 586 l 20 727 l 662 727 z"},"P":{"x_min":0,"x_max":733,"ha":733,"o":"m 693 498 q 693 449 676 402 q 659 355 627 324 q 583 281 530 259 q 477 237 397 237 l 280 237 l 280 0 l 93 0 l 93 727 l 401 727 q 471 727 518 715 q 566 703 603 679 q 646 650 670 605 q 693 561 693 498 z m 499 493 q 499 524 482 546 q 466 568 444 577 q 415 589 387 590 q 359 591 312 591 l 280 591 l 280 374 l 334 374 q 382 374 413 379 q 444 385 465 403 q 483 418 491 440 q 499 462 499 493 z"},"|":{"x_min":0,"x_max":543,"ha":543,"o":"m 343 -191 l 201 -191 l 201 760 l 343 760 z"},"t":{"x_min":0,"x_max":456,"ha":456,"o":"m 434 5 q 405 -2 374 -7 q 342 -11 296 -11 q 193 -11 143 31 q 93 72 93 173 l 93 429 l 21 429 l 21 548 l 93 548 l 93 705 l 269 705 l 269 548 l 434 548 l 434 429 l 269 429 l 269 235 q 269 206 270 185 q 270 163 277 146 q 284 129 302 119 q 319 109 352 109 q 366 109 388 115 q 410 121 419 125 l 434 125 z"},"M":{"x_min":0,"x_max":948,"ha":948,"o":"m 855 0 l 668 0 l 668 487 l 534 171 l 404 171 l 270 487 l 270 0 l 93 0 l 93 727 l 311 727 l 474 362 l 637 727 l 855 727 z"},"g":{"x_min":0,"x_max":699,"ha":699,"o":"m 616 63 q 616 -14 594 -67 q 572 -120 533 -149 q 493 -180 437 -193 q 381 -207 311 -207 q 254 -207 198 -200 q 143 -193 103 -183 l 103 -46 l 124 -46 q 156 -59 203 -69 q 249 -80 286 -80 q 334 -80 365 -71 q 396 -62 412 -45 q 427 -29 434 -5 q 440 20 440 54 l 440 64 q 409 38 370 23 q 332 8 284 8 q 169 8 106 77 q 44 146 44 288 q 44 356 63 405 q 82 455 117 491 q 149 525 196 544 q 243 563 292 563 q 337 563 373 553 q 410 542 439 524 l 446 548 l 616 548 z m 440 173 l 440 421 q 425 428 403 431 q 381 435 364 435 q 294 435 260 395 q 225 355 225 284 q 225 205 255 174 q 284 143 342 143 q 369 143 394 151 q 419 159 440 173 z"},"j":{"x_min":0,"x_max":403,"ha":403,"o":"m 320 -10 q 320 -103 263 -155 q 206 -207 116 -207 q 68 -207 29 -202 q -10 -198 -28 -194 l -28 -68 l -15 -68 q 0 -73 22 -76 q 44 -80 57 -80 q 107 -80 126 -49 q 145 -19 145 50 l 145 429 l 41 429 l 41 548 l 320 548 z m 320 626 l 133 626 l 133 760 l 320 760 z"},"i":{"x_min":0,"x_max":342,"ha":342,"o":"m 259 0 l 83 0 l 83 548 l 259 548 z m 264 626 l 78 626 l 78 760 l 264 760 z"},"y":{"x_min":0,"x_max":651,"ha":651,"o":"m 331 194 l 456 548 l 636 548 l 332 -201 l 141 -201 l 228 4 l 15 548 l 199 548 z"},"@":{"x_min":0,"x_max":964,"ha":964,"o":"m 776 626 q 831 571 862 495 q 893 418 893 324 q 893 255 873 185 q 854 114 824 68 l 577 68 l 569 106 q 542 87 516 76 q 490 65 441 65 q 361 65 312 131 q 263 197 263 308 q 263 368 279 412 q 296 457 325 490 q 352 521 390 539 q 428 557 465 557 q 498 557 522 545 q 547 533 561 520 l 561 550 l 674 550 l 674 151 l 757 151 q 775 190 783 235 q 792 280 792 322 q 792 404 769 467 q 746 529 706 570 q 664 612 608 632 q 553 653 488 653 q 426 653 370 628 q 314 604 271 562 q 228 520 201 456 q 174 392 174 316 q 174 233 199 169 q 225 105 268 62 q 310 21 366 -1 q 422 -23 485 -23 q 526 -23 579 -16 q 632 -8 673 4 l 673 -91 q 628 -101 583 -106 q 538 -112 485 -112 q 396 -112 320 -81 q 244 -50 188 6 q 133 62 102 142 q 71 222 71 316 q 71 407 103 484 q 135 562 192 619 q 247 676 324 708 q 401 741 487 741 q 573 741 648 711 q 722 681 776 626 z m 559 197 l 559 443 q 539 454 521 458 q 504 463 483 463 q 436 463 411 422 q 385 381 385 310 q 385 232 406 195 q 427 158 476 158 q 501 158 520 168 q 539 178 559 197 z"},".":{"x_min":0,"x_max":361,"ha":361,"o":"m 272 0 l 89 0 l 89 192 l 272 192 z"},"p":{"x_min":0,"x_max":699,"ha":699,"o":"m 655 282 q 655 214 635 158 q 614 103 580 66 q 545 28 500 9 q 456 -11 405 -11 q 358 -11 326 -1 q 293 9 259 27 l 259 -201 l 83 -201 l 83 548 l 259 548 l 259 491 q 299 523 342 543 q 384 563 439 563 q 542 563 598 488 q 655 413 655 282 z m 474 278 q 474 358 447 395 q 419 431 360 431 q 335 431 309 423 q 283 416 259 401 l 259 125 q 276 119 296 117 q 316 115 336 115 q 406 115 440 156 q 474 196 474 278 z"},"X":{"x_min":0,"x_max":764,"ha":764,"o":"m 752 0 l 535 0 l 378 239 l 219 0 l 12 0 l 270 366 l 17 727 l 233 727 l 385 500 l 541 727 l 748 727 l 494 374 z"},"*":{"x_min":0,"x_max":711,"ha":711,"o":"m 611 408 l 557 328 l 401 434 l 406 261 l 302 261 l 306 430 l 153 327 l 100 408 l 273 510 l 100 613 l 153 695 l 306 591 l 302 760 l 406 760 l 402 590 l 557 693 l 611 612 l 436 511 z"},"Y":{"x_min":0,"x_max":737,"ha":737,"o":"m 732 727 l 464 281 l 464 0 l 277 0 l 277 272 l 4 727 l 217 727 l 375 446 l 526 727 z"},"c":{"x_min":0,"x_max":588,"ha":588,"o":"m 369 -15 q 297 -15 238 2 q 178 20 134 55 q 91 91 67 145 q 43 199 43 272 q 43 349 69 404 q 94 460 140 497 q 185 531 243 547 q 301 563 363 563 q 419 563 467 551 q 514 539 555 520 l 555 370 l 530 370 q 520 378 506 390 q 491 402 470 413 q 450 424 426 431 q 402 438 371 438 q 300 438 262 393 q 225 349 225 272 q 225 193 263 152 q 302 111 374 111 q 407 111 433 118 q 460 126 478 136 q 494 146 507 157 q 520 167 530 178 l 555 178 l 555 28 q 514 8 469 -3 q 423 -15 369 -15 z"},"!":{"x_min":0,"x_max":402,"ha":402,"o":"m 303 727 l 281 209 l 122 209 l 99 727 z m 300 0 l 103 0 l 103 129 l 300 129 z"},"/":{"x_min":0,"x_max":689,"ha":689,"o":"m 597 760 l 210 -158 l 60 -158 l 446 760 z"},"[":{"x_min":0,"x_max":543,"ha":543,"o":"m 447 -191 l 121 -191 l 121 760 l 447 760 l 447 643 l 274 643 l 274 -74 l 447 -74 z"},"6":{"x_min":0,"x_max":711,"ha":711,"o":"m 660 248 q 660 191 640 142 q 619 93 582 59 q 542 23 490 4 q 438 -15 369 -15 q 303 -15 249 3 q 195 21 157 57 q 112 99 89 166 q 65 232 65 324 q 65 420 87 494 q 109 568 159 625 q 207 680 283 710 q 360 741 465 741 q 501 741 543 736 q 586 731 599 729 l 599 585 l 580 585 q 567 592 535 600 q 504 608 464 608 q 370 608 318 562 q 266 516 255 434 q 292 457 334 470 q 376 484 424 484 q 467 484 503 475 q 540 465 571 443 q 611 415 636 367 q 660 319 660 248 z m 438 138 q 453 154 462 177 q 471 200 471 239 q 471 274 461 297 q 451 320 433 333 q 415 347 391 352 q 367 357 342 357 q 320 357 297 353 q 273 348 254 340 q 254 335 253 324 q 253 313 253 296 q 253 236 265 197 q 277 158 297 138 q 311 123 329 115 q 348 108 369 108 q 385 108 405 116 q 424 123 438 138 z"},"r":{"x_min":0,"x_max":497,"ha":497,"o":"m 480 381 l 465 381 q 454 385 429 387 q 404 389 387 389 q 350 389 321 384 q 292 379 259 367 l 259 0 l 83 0 l 83 548 l 259 548 l 259 468 q 317 518 360 534 q 403 550 439 550 q 448 550 460 550 q 472 549 480 548 z"},"2":{"x_min":0,"x_max":711,"ha":711,"o":"m 661 0 l 90 0 l 90 120 q 156 167 221 221 q 287 274 327 312 q 386 370 411 412 q 436 455 436 496 q 436 546 404 573 q 372 600 312 600 q 267 600 217 582 q 167 563 125 534 l 109 534 l 109 696 q 144 711 212 726 q 279 741 347 741 q 484 741 556 684 q 627 626 627 521 q 627 453 593 391 q 559 329 488 263 q 443 222 398 187 q 354 153 334 139 l 661 139 z"},"{":{"x_min":0,"x_max":711,"ha":711,"o":"m 613 -191 l 479 -191 q 384 -191 328 -143 q 271 -95 271 -2 l 271 69 q 271 156 233 190 q 194 224 108 224 l 74 224 l 74 344 l 108 344 q 194 344 233 378 q 271 412 271 499 l 271 571 q 271 664 328 712 q 384 760 479 760 l 613 760 l 613 650 l 557 650 q 528 650 504 646 q 480 642 464 629 q 448 617 439 593 q 431 568 431 530 l 431 477 q 431 409 393 363 q 354 317 284 290 l 284 278 q 354 251 393 206 q 431 160 431 91 l 431 38 q 431 0 439 -24 q 448 -48 464 -61 q 480 -74 504 -78 q 528 -82 557 -82 l 613 -82 z"},"9":{"x_min":0,"x_max":711,"ha":711,"o":"m 646 404 q 646 313 622 234 q 599 156 551 102 q 499 44 422 15 q 346 -14 244 -14 q 208 -14 166 -10 q 124 -5 110 -2 l 110 141 l 130 141 q 145 134 172 126 q 199 119 246 119 q 284 119 320 128 q 357 138 383 158 q 412 180 431 213 q 449 246 456 292 q 413 268 377 255 q 340 242 286 242 q 245 242 208 252 q 170 262 140 283 q 99 312 75 359 q 51 406 51 478 q 51 595 132 668 q 213 742 345 742 q 413 742 466 724 q 518 706 556 669 q 601 627 623 562 q 646 498 646 404 z m 458 432 q 458 491 447 530 q 436 568 416 589 q 401 604 383 611 q 364 618 344 618 q 325 618 307 612 q 290 605 274 589 q 259 573 249 548 q 240 522 240 487 q 240 453 250 430 q 260 407 278 393 q 295 380 319 375 q 342 369 369 369 q 391 369 417 375 q 443 380 457 386 q 457 392 458 402 q 458 412 458 432 z"}," ":{"x_min":0,"x_max":342,"ha":342,"o":""},"I":{"x_min":0,"x_max":546,"ha":546,"o":"m 486 0 l 60 0 l 60 129 l 179 129 l 179 598 l 60 598 l 60 727 l 486 727 l 486 598 l 367 598 l 367 129 l 486 129 z"},"H":{"x_min":0,"x_max":837,"ha":837,"o":"m 745 0 l 557 0 l 557 320 l 280 320 l 280 0 l 93 0 l 93 727 l 280 727 l 280 461 l 557 461 l 557 727 l 745 727 z"},"4":{"x_min":0,"x_max":711,"ha":711,"o":"m 671 167 l 572 167 l 572 -2 l 393 -2 l 393 167 l 41 167 l 41 305 l 381 727 l 572 727 l 572 300 l 671 300 z m 393 300 l 393 563 l 182 300 z"},"~":{"x_min":0,"x_max":867,"ha":867,"o":"m 792 492 q 792 332 739 246 q 686 160 581 160 q 546 160 520 168 q 494 176 473 189 q 453 204 436 220 q 420 237 402 258 q 391 272 375 292 q 359 312 348 324 q 333 339 321 348 q 308 356 292 356 q 262 356 247 341 q 232 326 224 302 q 215 276 212 236 q 209 197 208 159 l 77 159 q 77 322 131 406 q 185 491 288 491 q 321 491 348 482 q 375 474 397 460 q 417 446 434 429 q 451 412 468 393 q 479 378 493 360 q 507 342 522 326 q 539 309 552 302 q 564 294 578 294 q 605 294 622 308 q 638 322 646 348 q 654 374 657 411 q 660 447 661 492 z"},"D":{"x_min":0,"x_max":830,"ha":830,"o":"m 780 363 q 780 261 733 181 q 687 101 616 58 q 563 25 500 13 q 436 0 349 0 l 93 0 l 93 727 l 356 727 q 445 727 510 712 q 574 697 618 670 q 693 624 737 546 q 780 468 780 363 z m 586 364 q 586 436 560 487 q 534 538 477 567 q 448 581 418 586 q 388 591 328 591 l 280 591 l 280 136 l 328 136 q 395 136 426 142 q 457 148 487 165 q 538 194 562 243 q 586 292 586 364 z"},"^":{"x_min":0,"x_max":867,"ha":867,"o":"m 771 313 l 615 313 l 426 590 l 251 312 l 96 312 l 365 727 l 486 727 z"},"0":{"x_min":0,"x_max":711,"ha":711,"o":"m 656 364 q 656 272 640 199 q 623 127 588 81 q 552 33 495 9 q 438 -15 355 -15 q 274 -15 216 9 q 159 34 123 82 q 87 129 71 200 q 55 271 55 363 q 55 458 71 528 q 88 598 124 646 q 160 694 218 718 q 275 742 355 742 q 439 742 496 717 q 552 692 588 644 q 624 596 640 526 q 656 456 656 364 z m 467 364 q 467 496 441 552 q 416 607 355 607 q 295 607 270 552 q 244 496 244 363 q 244 233 270 176 q 296 119 355 119 q 415 119 441 176 q 467 233 467 364 z"},"F":{"x_min":0,"x_max":650,"ha":650,"o":"m 614 586 l 279 586 l 279 451 l 589 451 l 589 311 l 279 311 l 279 0 l 93 0 l 93 727 l 614 727 z"},"`":{"x_min":0,"x_max":711,"ha":711,"o":"m 475 626 l 354 626 l 183 809 l 183 818 l 354 818 z"},"k":{"x_min":0,"x_max":671,"ha":671,"o":"m 665 0 l 460 0 l 307 239 l 259 181 l 259 0 l 83 0 l 83 760 l 259 760 l 259 306 l 448 548 l 651 548 l 454 312 z"},"u":{"x_min":0,"x_max":712,"ha":712,"o":"m 629 0 l 454 0 l 454 61 q 405 23 364 4 q 324 -15 268 -15 q 177 -15 128 37 q 79 89 79 191 l 79 548 l 255 548 l 255 276 q 255 235 258 207 q 261 180 271 162 q 280 144 299 135 q 317 127 351 127 q 374 127 401 135 q 428 144 454 160 l 454 548 l 629 548 z"},"]":{"x_min":0,"x_max":543,"ha":543,"o":"m 423 -191 l 97 -191 l 97 -74 l 270 -74 l 270 643 l 97 643 l 97 760 l 423 760 z"},"U":{"x_min":0,"x_max":812,"ha":812,"o":"m 729 263 q 729 128 647 57 q 565 -15 406 -15 q 246 -15 164 57 q 83 128 83 263 l 83 727 l 271 727 l 271 273 q 271 198 303 161 q 334 124 406 124 q 476 124 509 159 q 541 195 541 273 l 541 727 l 729 727 z"},"o":{"x_min":0,"x_max":687,"ha":687,"o":"m 644 274 q 644 139 565 61 q 486 -17 343 -17 q 201 -17 122 61 q 43 139 43 274 q 43 410 122 488 q 202 565 343 565 q 487 565 565 487 q 644 409 644 274 z m 427 141 q 444 162 453 191 q 461 221 461 273 q 461 321 453 354 q 444 387 428 406 q 413 426 391 435 q 369 443 343 443 q 318 443 298 436 q 278 429 260 409 q 244 390 235 356 q 225 323 225 273 q 225 228 233 195 q 242 162 258 142 q 273 123 295 114 q 317 105 345 105 q 369 105 390 114 q 412 122 427 141 z"},"N":{"x_min":0,"x_max":847,"ha":847,"o":"m 754 0 l 573 0 l 265 499 l 265 0 l 93 0 l 93 727 l 317 727 l 582 311 l 582 727 l 754 727 z"},"+":{"x_min":0,"x_max":867,"ha":867,"o":"m 761 258 l 500 258 l 500 0 l 367 0 l 367 258 l 106 258 l 106 389 l 367 389 l 367 646 l 500 646 l 500 389 l 761 389 z"},"G":{"x_min":0,"x_max":811,"ha":811,"o":"m 736 42 q 687 22 606 4 q 526 -15 446 -15 q 260 -15 155 86 q 50 187 50 364 q 50 534 156 637 q 262 741 452 741 q 523 741 588 728 q 653 715 733 677 l 733 506 l 712 506 q 698 517 672 535 q 646 554 621 567 q 593 583 555 594 q 517 605 475 605 q 425 605 384 591 q 344 576 312 546 q 281 517 263 471 q 245 426 245 367 q 245 247 309 183 q 373 119 498 119 q 509 119 522 119 q 535 120 545 121 l 545 263 l 400 263 l 400 400 l 736 400 z"},"q":{"x_min":0,"x_max":699,"ha":699,"o":"m 616 -201 l 440 -201 l 440 54 q 397 19 356 2 q 315 -15 264 -15 q 164 -15 104 62 q 44 139 44 270 q 44 340 64 394 q 84 448 120 486 q 153 523 200 543 q 248 563 295 563 q 341 563 373 553 q 404 542 439 524 l 446 548 l 616 548 z m 440 151 l 440 420 q 422 428 401 432 q 381 435 364 435 q 294 435 260 392 q 225 349 225 272 q 225 191 253 155 q 281 119 342 119 q 366 119 393 128 q 420 137 440 151 z"},"d":{"x_min":0,"x_max":699,"ha":699,"o":"m 616 0 l 440 0 l 440 57 q 395 20 355 2 q 316 -15 264 -15 q 164 -15 104 62 q 44 139 44 270 q 44 340 64 394 q 84 448 120 486 q 153 523 200 543 q 248 563 295 563 q 344 563 376 553 q 407 542 440 526 l 440 760 l 616 760 z m 440 151 l 440 420 q 422 428 401 432 q 381 435 364 435 q 294 435 260 392 q 225 349 225 272 q 225 191 253 155 q 281 119 342 119 q 366 119 393 128 q 420 137 440 151 z"},"1":{"x_min":0,"x_max":711,"ha":711,"o":"m 615 0 l 130 0 l 130 127 l 283 127 l 283 511 l 130 511 l 130 630 q 165 630 197 634 q 229 638 251 648 q 276 661 289 680 q 302 700 304 729 l 465 729 l 465 127 l 615 127 z"},"5":{"x_min":0,"x_max":711,"ha":711,"o":"m 646 246 q 646 189 624 141 q 603 92 562 58 q 518 21 459 3 q 401 -15 326 -15 q 239 -15 178 -1 q 118 12 80 29 l 80 189 l 101 189 q 145 163 196 146 q 248 128 298 128 q 329 128 365 135 q 401 142 422 161 q 438 176 447 191 q 456 207 456 240 q 456 265 444 283 q 433 302 415 313 q 388 329 351 334 q 314 339 284 339 q 240 339 199 332 q 159 324 129 317 l 107 317 l 107 727 l 625 727 l 625 588 l 284 588 l 284 469 q 299 470 322 471 q 345 472 363 472 q 423 472 470 460 q 517 449 551 428 q 596 401 621 357 q 646 313 646 246 z"}}}
